HIERARCHY
ROOT hip
{
	OFFSET 0.000000 0.000000 0.000000
	CHANNELS 6 Xposition Yposition Zposition Xrotation Zrotation Yrotation 
	JOINT abdomen
	{
		OFFSET 0.000000 3.422050 0.000000
		CHANNELS 3 Xrotation Zrotation Yrotation 
		JOINT chest
		{
			OFFSET 0.000000 8.486693 -0.684411
			CHANNELS 3 Xrotation Zrotation Yrotation 
			JOINT neck
			{
				OFFSET 0.000000 10.266162 -0.273764
				CHANNELS 3 Xrotation Zrotation Yrotation 
				JOINT head
				{
					OFFSET 0.000000 3.148285 0.000000
					CHANNELS 3 Xrotation Zrotation Yrotation 
					End Site
					{
						OFFSET 0.000000 3.148289 0.000000
					}
				}
			}
			JOINT lCollar
			{
				OFFSET 3.422053 6.707223 -0.821293
				CHANNELS 3 Yrotation Zrotation Xrotation 
				JOINT lShldr
				{
					OFFSET 3.285171 0.000000 0.000000
					CHANNELS 3 Zrotation Yrotation Xrotation 
					JOINT lForeArm
					{
						OFFSET 10.129278 0.000000 0.000000
						CHANNELS 3 Yrotation Zrotation Xrotation 
						JOINT lHand
						{
							OFFSET 8.486692 0.000000 0.000000
							CHANNELS 3 Zrotation Yrotation Xrotation 
							End Site
							{
								OFFSET 4.106464 0.000000 0.000000
							}
						}
					}
				}
			}
			JOINT rCollar
			{
				OFFSET -3.558935 6.707223 -0.821293
				CHANNELS 3 Yrotation Zrotation Xrotation 
				JOINT rShldr
				{
					OFFSET -3.148289 0.000000 0.000000
					CHANNELS 3 Zrotation Yrotation Xrotation 
					JOINT rForeArm
					{
						OFFSET -10.266159 0.000000 0.000000
						CHANNELS 3 Yrotation Zrotation Xrotation 
						JOINT rHand
						{
							OFFSET -8.349810 0.000000 0.000000
							CHANNELS 3 Zrotation Yrotation Xrotation 
							End Site
							{
								OFFSET -4.106464 0.000000 0.000000
							}
						}
					}
				}
			}
		}
	}
	JOINT lThigh
	{
		OFFSET 5.338403 -1.642589 1.368821
		CHANNELS 3 Xrotation Zrotation Yrotation 
		JOINT lShin
		{
			OFFSET -2.053232 -20.121670 0.000000
			CHANNELS 3 Xrotation Zrotation Yrotation 
			JOINT lFoot
			{
				OFFSET 0.000000 -19.300380 -1.231939
				CHANNELS 3 Xrotation Yrotation Zrotation 
				End Site
				{
					OFFSET 0.000000 -2.463878 4.653993
				}
			}
		}
	}
	JOINT rThigh
	{
		OFFSET -5.338403 -1.642589 1.368821
		CHANNELS 3 Xrotation Zrotation Yrotation 
		JOINT rShin
		{
			OFFSET 2.053232 -20.121670 0.000000
			CHANNELS 3 Xrotation Zrotation Yrotation 
			JOINT rFoot
			{
				OFFSET 0.000000 -19.300380 -1.231939
				CHANNELS 3 Xrotation Yrotation Zrotation 
				End Site
				{
					OFFSET 0.000000 -2.463878 4.653993
				}
			}
		}
	}
}
MOTION
Frames: 14
Frame Time: 0.049989
14.997663 14.190981 -1.208104 -90.001862 -0.264660 179.742767 43.274643 -0.825122 -0.694141 -24.855658 -0.443030 -0.767199 -27.357327 0.000000 0.000000 -16.599222 -0.054856 -0.001401 -5.507673 -14.038208 8.781411 -48.255287 -57.618343 -31.595097 -130.511047 25.586340 53.521168 -1.052041 -13.043129 12.307088 6.458918 13.728148 8.745954 49.000912 57.785431 -30.849266 130.745270 -25.370493 53.635708 1.117559 12.747708 13.028981 -29.551018 32.929073 23.206564 120.161552 26.417063 -6.524279 19.685562 2.809982 3.718763 -29.549168 -32.915604 -23.237185 120.162834 -26.418434 6.518352 19.664244 -2.820685 -3.703102 
14.997663 14.190981 -1.187679 -90.001862 -0.264660 179.742767 43.274643 -0.825122 -0.694141 -24.855658 -0.443030 -0.767199 -27.707226 0.000000 0.000000 -17.857121 -0.054825 -0.001375 -5.326725 -13.886148 8.625411 -48.255287 -57.618343 -31.595097 -130.511047 25.586340 53.521168 -1.142117 -12.748502 12.236903 6.246362 13.581430 8.590024 49.000912 57.785431 -30.849266 130.745270 -25.370493 53.635708 1.203529 12.459879 12.942407 -29.551018 32.929073 23.206564 119.973137 26.408846 -6.497114 19.685562 2.809982 3.718763 -29.549168 -32.915604 -23.237185 119.975494 -26.412971 6.490246 19.664244 -2.820685 -3.703102 
14.997663 14.190981 -1.167254 -90.001862 -0.264660 179.742767 43.274643 -0.825122 -0.694141 -24.855658 -0.443030 -0.767199 -28.057178 0.000000 0.000000 -19.117311 -0.054794 -0.001349 -5.145448 -13.734548 8.469000 -48.255287 -57.618343 -31.595097 -130.511047 25.586340 53.521168 -1.232470 -12.453946 12.166316 6.033501 13.435259 8.433611 49.000912 57.785431 -30.849266 130.745270 -25.370493 53.635700 1.289859 12.172143 12.855475 -29.551018 32.929073 23.206564 119.784729 26.400713 -6.469920 19.685562 2.809982 3.718763 -29.549168 -32.915604 -23.237185 119.788170 -26.407593 6.462120 19.664244 -2.820685 -3.703102 
14.997663 14.190981 -1.146829 -90.001862 -0.264660 179.742767 43.274643 -0.825122 -0.694141 -24.855658 -0.443030 -0.767199 -28.407183 0.000000 0.000000 -20.379501 -0.054761 -0.001324 -4.963844 -13.583414 8.312182 -48.255287 -57.618343 -31.595097 -130.511047 25.586340 53.521168 -1.323104 -12.159470 12.095327 5.820334 13.289638 8.276720 49.000912 57.785431 -30.849266 130.745270 -25.370493 53.635708 1.376553 11.884506 12.768187 -29.551018 32.929070 23.206564 119.596313 26.392651 -6.442696 19.685562 2.809982 3.718763 -29.549168 -32.915604 -23.237185 119.600838 -26.402302 6.433976 19.664244 -2.820685 -3.703102 
14.997663 14.190981 -1.126404 -90.001862 -0.264660 179.742767 43.274643 -0.825122 -0.694141 -24.855659 -0.443030 -0.767199 -28.757225 0.000000 0.000000 -21.643383 -0.054729 -0.001300 -4.781915 -13.432755 8.154959 -48.255287 -57.618343 -31.595097 -130.511047 25.586340 53.521168 -1.414019 -11.865074 12.023931 5.606865 13.144568 8.119349 49.000912 57.785431 -30.849266 130.745270 -25.370493 53.635700 1.463612 11.596970 12.680534 -29.551018 32.929073 23.206564 119.407898 26.384674 -6.415443 19.685562 2.809982 3.718763 -29.549168 -32.915604 -23.237185 119.413513 -26.397089 6.405813 19.664244 -2.820685 -3.703102 
14.997663 14.190982 -1.105979 -90.001862 -0.264660 179.742767 43.274643 -0.825122 -0.694141 -24.855656 -0.443030 -0.767199 -29.107300 0.000000 0.000000 -22.908651 -0.054695 -0.001277 -4.599662 -13.282568 7.997329 -48.255280 -57.618336 -31.595089 -130.511047 25.586340 53.521168 -1.505219 -11.570766 11.952128 5.393095 13.000062 7.961505 49.000912 57.785431 -30.849266 130.745270 -25.370493 53.635708 1.551037 11.309544 12.592518 -29.551018 32.929073 23.206564 119.219475 26.376778 -6.388164 19.685562 2.809982 3.718763 -29.549168 -32.915604 -23.237183 119.226158 -26.391956 6.377633 19.664244 -2.820685 -3.703102 
14.997663 14.190982 -1.085553 -90.001862 -0.264660 179.742767 43.274643 -0.825122 -0.694141 -24.855658 -0.443030 -0.767199 -29.457397 0.000000 0.000000 -24.175009 -0.054662 -0.001254 -4.417086 -13.132862 7.839299 -48.255295 -57.618343 -31.595085 -130.511047 25.586340 53.521168 -1.596706 -11.276552 11.879919 5.179028 12.856123 7.803192 49.000912 57.785431 -30.849266 130.745270 -25.370493 53.635708 1.638832 11.022234 12.504140 -29.551018 32.929073 23.206564 119.031075 26.368959 -6.360857 19.685562 2.809982 3.718763 -29.549171 -32.915607 -23.237186 119.038803 -26.386906 6.349433 19.664244 -2.820685 -3.703102 
14.997663 14.190982 -1.065128 -90.001862 -0.264660 179.742767 43.274643 -0.825122 -0.694141 -24.855658 -0.443030 -0.767199 -29.807508 0.000000 0.000000 -25.442135 -0.054627 -0.001232 -4.234190 -12.983642 7.680870 -48.255287 -57.618336 -31.595089 -130.511047 25.586340 53.521168 -1.688483 -10.982440 11.807302 4.964664 12.712750 7.644407 49.000912 57.785431 -30.849266 130.745285 -25.370495 53.635712 1.726997 10.735042 12.415394 -29.551018 32.929073 23.206564 118.842659 26.361219 -6.333522 19.685562 2.809982 3.718763 -29.549168 -32.915604 -23.237185 118.851471 -26.381939 6.321214 19.664244 -2.820685 -3.703102 
14.997663 14.190982 -1.044703 -90.001862 -0.264660 179.742767 43.274643 -0.825122 -0.694141 -24.855658 -0.443030 -0.767199 -30.157642 0.000000 0.000000 -26.709726 -0.054592 -0.001210 -4.050977 -12.834912 7.522042 -48.255287 -57.618336 -31.595089 -130.511047 25.586340 53.521168 -1.780552 -10.688434 11.734274 4.750008 12.569958 7.485160 49.000912 57.785431 -30.849266 130.745270 -25.370493 53.635708 1.815534 10.447976 12.326276 -29.551018 32.929073 23.206564 118.654282 26.353567 -6.306160 19.685562 2.809982 3.718763 -29.549168 -32.915604 -23.237185 118.664131 -26.377052 6.292978 19.664244 -2.820685 -3.703102 
14.997663 14.190982 -1.024278 -90.001862 -0.264660 179.742767 43.274643 -0.825122 -0.694141 -24.855656 -0.443030 -0.767199 -30.507782 0.000000 0.000000 -27.977482 -0.054557 -0.001190 -3.867445 -12.686674 7.362818 -48.255287 -57.618343 -31.595097 -130.511047 25.586340 53.521168 -1.872916 -10.394535 11.660833 4.535060 12.427743 7.325449 49.000912 57.785431 -30.849266 130.745285 -25.370495 53.635712 1.904445 10.161042 12.236792 -29.551018 32.929073 23.206564 118.465874 26.345987 -6.278771 19.685562 2.809982 3.718763 -29.549168 -32.915604 -23.237185 118.476814 -26.372259 6.264729 19.664244 -2.820685 -3.703102 
14.997663 14.190982 -1.003853 -90.001862 -0.264660 179.742767 43.274643 -0.825122 -0.694141 -24.855658 -0.443030 -0.767199 -30.857922 0.000000 0.000000 -29.245073 -0.054521 -0.001170 -3.683598 -12.538939 7.203201 -48.255287 -57.618343 -31.595097 -130.511047 25.586340 53.521168 -1.965577 -10.100755 11.586980 4.319826 12.286119 7.165284 49.000912 57.785431 -30.849266 130.745270 -25.370493 53.635708 1.993733 9.874247 12.146933 -29.551018 32.929073 23.206564 118.277496 26.338493 -6.251358 19.685562 2.809982 3.718763 -29.549168 -32.915604 -23.237185 118.289482 -26.367533 6.236461 19.664244 -2.820685 -3.703102 
14.997663 14.190982 -0.983428 -90.001862 -0.264660 179.742767 43.274643 -0.825122 -0.694141 -24.855658 -0.443030 -0.767199 -31.208054 0.000000 0.000000 -30.512201 -0.054485 -0.001151 -3.499438 -12.391703 7.043191 -48.255276 -57.618336 -31.595097 -130.511047 25.586340 53.521168 -2.058536 -9.807097 11.512710 4.104304 12.145084 7.004661 49.000912 57.785431 -30.849266 130.745270 -25.370493 53.635700 2.083398 9.587592 12.056696 -29.551018 32.929073 23.206562 118.089134 26.331079 -6.223919 19.685562 2.809982 3.718763 -29.549168 -32.915604 -23.237183 118.102165 -26.362898 6.208178 19.664244 -2.820685 -3.703102 
14.997663 14.190982 -0.963003 -90.001862 -0.264660 179.742767 43.274643 -0.825122 -0.694141 -24.855658 -0.443030 -0.767199 -31.558176 0.000000 0.000000 -31.778555 -0.054449 -0.001133 -3.314966 -12.244974 6.882792 -48.255287 -57.618343 -31.595097 -130.511047 25.586340 53.521168 -2.151798 -9.513571 11.438028 3.888500 12.004645 6.843587 49.000912 57.785431 -30.849266 130.745270 -25.370493 53.635708 2.173444 9.301089 11.966088 -29.551018 32.929073 23.206562 117.900772 26.323751 -6.196457 19.685562 2.809982 3.718763 -29.549168 -32.915604 -23.237185 117.914856 -26.358347 6.179880 19.664244 -2.820685 -3.703102 
14.997663 14.190982 -0.942577 -90.001862 -0.264660 179.742767 43.274643 -0.825122 -0.694141 -24.855656 -0.443030 -0.767199 -31.908274 0.000000 0.000000 -33.043831 -0.054412 -0.001116 -3.130184 -12.098760 6.722008 -48.255287 -57.618343 -31.595097 -130.511047 25.586340 53.521168 -2.245364 -9.220175 11.362925 3.672415 11.864807 6.682064 49.000912 57.785431 -30.849266 130.745270 -25.370493 53.635708 2.263871 9.014736 11.875097 -29.551018 32.929070 23.206564 117.712410 26.316490 -6.168964 19.685562 2.809982 3.718763 -29.549168 -32.915604 -23.237185 117.727562 -26.353878 6.151564 19.664244 -2.820685 -3.703102 
